<svg preserveAspectRatio="none" overflow="visible" style="display: block;" width="22.4" height="11.2" viewBox="0 0 22.4 11.2" fill="none" xmlns="http://www.w3.org/2000/svg">
<path id="Vector" d="M0 6.23792C0.933312 4.02627 2.1583 1.72224 4.26474 0.476562C5.82928 -0.45771 7.76395 0.117842 9.19958 1.03367C11.4106 2.39698 13.1403 4.42314 15.3213 5.82578C16.6386 6.59802 18.277 5.96527 19.2372 4.89688C20.3957 3.54575 21.7207 2.27251 22.4 0.577186V5.85779C21.4187 7.80451 20.1563 9.82823 18.1377 10.7725C16.4861 11.4835 14.5674 11.0571 13.1373 10.0271C11.041 8.61946 9.49757 6.44808 7.21968 5.31064C6.11293 4.73458 4.70165 4.86992 3.77438 5.73661C2.10259 7.21667 1.14454 9.30973 0 11.2V6.23792Z" fill="#3D3D42"/>
</svg>
