<svg preserveAspectRatio="none" overflow="visible" style="display: block;" width="28.8913" height="28.8929" viewBox="0 0 28.8913 28.8929" fill="none" xmlns="http://www.w3.org/2000/svg">
<path id="Vector" d="M14.4456 4.71424e-07C14.1437 -0.000265154 13.8418 0.111719 13.6178 0.336719L0.334941 13.6197C-0.113028 14.0677 -0.110949 14.8275 0.337004 15.2754L13.6178 28.5561C14.0658 29.0042 14.8255 29.0062 15.2735 28.5561L28.5564 15.2733C29.0043 14.8254 29.0023 14.0655 28.5543 13.6176L15.2735 0.336719C15.0495 0.112751 14.7476 0.000250471 14.4456 4.71424e-07ZM14.4446 1.96945L26.9237 14.4486L14.4446 26.9276L1.96557 14.4486L14.4446 1.96945ZM14.4453 7.72883C10.7386 7.72883 7.72655 10.741 7.72655 14.4477C7.72655 18.1544 10.7386 21.1665 14.4453 21.1665C18.1521 21.1665 21.1641 18.1544 21.1641 14.4477C21.1641 10.741 18.1521 7.72883 14.4453 7.72883ZM14.4453 8.47398C17.7486 8.47398 20.4191 11.1445 20.4191 14.4477C20.4191 17.7509 17.7486 20.4216 14.4453 20.4216C11.1421 20.4216 8.47152 17.7509 8.47152 14.4477C8.47152 11.1445 11.1421 8.47397 14.4453 8.47397V8.47398Z" fill="#3D3D42"/>
</svg>
