<svg preserveAspectRatio="none" overflow="visible" style="display: block;" width="28.9135" height="28.9103" viewBox="0 0 28.9135 28.9103" fill="none" xmlns="http://www.w3.org/2000/svg">
<path id="Vector" d="M14.3187 7.18298e-05C8.68278 -0.0186469 3.27489 3.62298 1.13584 8.83231C-1.11601 13.9909 0.0540104 20.3992 3.99306 24.4225C7.78154 28.5005 14.0235 29.9973 19.2512 28.0892C24.669 26.2443 28.6687 20.9237 28.8862 15.1972C29.2508 9.57015 25.9403 3.95623 20.8713 1.5051C18.8862 0.514525 16.67 -0.00194382 14.4519 0.00119681C14.4075 0.000594514 14.3631 0.000219531 14.3187 7.18298e-05ZM14.7148 1.56213C20.2316 1.59243 25.4274 5.58337 26.8541 10.922C28.3702 16.0299 26.3195 21.9439 21.9181 24.9692C17.346 28.3298 10.5659 28.0867 6.24837 24.4043C1.89815 20.9359 0.340995 14.5203 2.57295 9.43271C4.50182 4.73374 9.36979 1.50062 14.4519 1.5637C14.5395 1.56217 14.6271 1.56165 14.7148 1.56213ZM12.2019 8.20426V12.2043H8.20185V16.7043H12.2019V20.7043H16.7019V16.7043H20.7019V12.2042H16.7019V8.20426H12.2019ZM12.9519 8.95426H15.9519V12.9543H19.9519V15.9543H15.9519V19.9543H12.9519V15.9308H8.95185V12.9543H12.9519V8.95426Z" fill="#3D3D42"/>
</svg>
